<svg xmlns="http://www.w3.org/2000/svg" viewBox="0 0 1195 635.11"><defs><style>.cls-1,.cls-3{fill:#b45309;}.cls-2,.cls-4{fill:#0284c7;}.cls-3,.cls-4{fill-rule:evenodd;}</style></defs><title>Asset 6</title><g id="Layer_2" data-name="Layer 2"><g id="Layer_1-2" data-name="Layer 1"><rect class="bar67" class="bar66" class="bar65" class="bar64" class="cls-1" x="285" width="24" height="309"/><rect class="cls-2" x="285" y="333" width="24" height="302.11"/><path class="bar63" class="bar62" class="bar61" class="bar60" class="bar59" class="bar58" class="bar57" class="bar56" class="bar55" class="bar54" class="bar53" class="bar52" class="bar51" class="bar50" class="bar49" class="bar48" class="bar47" class="bar46" class="bar45" class="bar44" class="bar43" class="bar42" class="bar41" class="bar40" class="bar39" class="bar38" class="bar37" class="bar36" class="bar35" class="bar34" class="bar33" class="bar32" class="bar31" class="bar30" class="bar29" class="bar28" class="bar27" class="bar26" class="bar25" class="bar24" class="bar23" class="bar22" class="bar21" class="bar20" class="bar19" class="bar18" class="bar17" class="bar16" class="bar15" class="bar14" class="bar13" class="bar12" class="bar11" class="bar10" class="bar9" class="bar8" class="bar7" class="bar6" class="bar5" class="bar4" class="bar3" class="bar2" class="bar1" class="bar0" class="cls-3" d="M58.52,271.83V309h-24V282.05Q46.72,277.27,58.52,271.83Z"/><path class="cls-4" d="M34.52,333h24v37.93q-11.81-5.43-24-10.22Z"/><path class="cls-3" d="M98.52,251v58h-24V264.11Q86.78,257.92,98.52,251Z"/><path class="cls-4" d="M74.52,333h24v58.74q-11.74-6.89-24-13.09Z"/><path class="cls-3" d="M149.52,216.18V309h-24V233.89Q137.88,225.42,149.52,216.18Z"/><path class="cls-4" d="M125.52,333h24v93.58q-11.62-9.22-24-17.71Z"/><path class="cls-3" d="M216,150.09V309H192V177.52Q204.68,164.31,216,150.09Z"/><path class="cls-4" d="M192,333h24V492.67q-11.31-14.19-24-27.43Z"/><polygon class="cls-3" points="24 286.03 24 309 0 309 0 294.07 15.85 288.76 24 286.03"/><polygon class="cls-4" points="0 333 24 333 24 354 15.85 354 0 348.69 0 333"/><polygon class="cls-4" points="24 354 24 356.73 15.85 354 24 354"/><path class="cls-3" d="M58.52,271.83V309h-24V282.05Q46.72,277.27,58.52,271.83Z"/><path class="cls-4" d="M34.52,333h24v37.93q-11.81-5.43-24-10.22Z"/><path class="cls-3" d="M98.52,251v58h-24V264.11Q86.78,257.92,98.52,251Z"/><path class="cls-4" d="M74.52,333h24v58.74q-11.74-6.89-24-13.09Z"/><path class="cls-3" d="M149.52,216.18V309h-24V233.89Q137.88,225.42,149.52,216.18Z"/><path class="cls-4" d="M125.52,333h24v93.58q-11.62-9.22-24-17.71Z"/><path class="cls-3" d="M216,150.09V309H192V177.52Q204.68,164.31,216,150.09Z"/><path class="cls-4" d="M192,333h24V492.67q-11.31-14.19-24-27.43Z"/><path class="cls-3" d="M558.48,282.05V309h-24V271.83Q546.29,277.26,558.48,282.05Z"/><path class="cls-4" d="M534.48,333h24v27.71q-12.19,4.79-24,10.22Z"/><path class="cls-3" d="M518.48,264.11V309h-24V251Q506.23,257.91,518.48,264.11Z"/><path class="cls-4" d="M494.48,333h24v45.65q-12.25,6.19-24,13.09Z"/><path class="cls-3" d="M467.48,233.89V309h-24V216.18Q455.11,225.41,467.48,233.89Z"/><path class="cls-4" d="M443.48,333h24v75.87q-12.36,8.47-24,17.71Z"/><path class="cls-3" d="M401,177.52V309H377V150.09Q388.31,164.28,401,177.52Z"/><path class="cls-4" d="M377,333h24V465.24q-12.67,13.22-24,27.43Z"/><polygon class="cls-4" points="569 333 593 333 593 348.69 577.15 354 569 356.73 569 333"/><polygon class="cls-4" points="626 333 602 333 602 348.69 617.85 354 626 356.73 626 333"/><path class="cls-3" d="M558.48,282.05V309h-24V271.83Q546.29,277.26,558.48,282.05Z"/><path class="cls-4" d="M534.48,333h24v27.71q-12.19,4.79-24,10.22Z"/><path class="cls-3" d="M518.48,264.11V309h-24V251Q506.23,257.91,518.48,264.11Z"/><path class="cls-4" d="M494.48,333h24v45.65q-12.25,6.19-24,13.09Z"/><path class="cls-3" d="M467.48,233.89V309h-24V216.18Q455.11,225.41,467.48,233.89Z"/><path class="cls-4" d="M443.48,333h24v75.87q-12.36,8.47-24,17.71Z"/><path class="cls-3" d="M401,177.52V309H377V150.09Q388.31,164.28,401,177.52Z"/><path class="cls-4" d="M377,333h24V465.24q-12.67,13.22-24,27.43Z"/><rect class="cls-1" x="887" width="24" height="309"/><rect class="cls-2" x="887" y="333" width="24" height="302.11"/><path class="cls-3" d="M660.52,271.83V309h-24V282.05Q648.71,277.27,660.52,271.83Z"/><path class="cls-4" d="M636.52,333h24v37.93q-11.81-5.43-24-10.22Z"/><path class="cls-3" d="M700.52,251v58h-24V264.11Q688.78,257.92,700.52,251Z"/><path class="cls-4" d="M676.52,333h24v58.74q-11.74-6.89-24-13.09Z"/><path class="cls-3" d="M751.52,216.18V309h-24V233.89Q739.88,225.42,751.52,216.18Z"/><path class="cls-4" d="M727.52,333h24v93.58q-11.62-9.22-24-17.71Z"/><path class="cls-3" d="M818,150.09V309H794V177.52Q806.68,164.31,818,150.09Z"/><path class="cls-4" d="M794,333h24V492.67q-11.31-14.19-24-27.43Z"/><polygon class="cls-3" points="626 286.03 626 309 602 309 602 294.07 617.85 288.76 626 286.03"/><path class="cls-3" d="M660.52,271.83V309h-24V282.05Q648.71,277.27,660.52,271.83Z"/><path class="cls-4" d="M636.52,333h24v37.93q-11.81-5.43-24-10.22Z"/><path class="cls-3" d="M700.52,251v58h-24V264.11Q688.78,257.92,700.52,251Z"/><path class="cls-4" d="M676.52,333h24v58.74q-11.74-6.89-24-13.09Z"/><path class="cls-3" d="M751.52,216.18V309h-24V233.89Q739.88,225.42,751.52,216.18Z"/><path class="cls-4" d="M727.52,333h24v93.58q-11.62-9.22-24-17.71Z"/><path class="cls-3" d="M818,150.09V309H794V177.52Q806.68,164.31,818,150.09Z"/><path class="cls-4" d="M794,333h24V492.67q-11.31-14.19-24-27.43Z"/><path class="cls-3" d="M1160.48,282.05V309h-24V271.83Q1148.28,277.26,1160.48,282.05Z"/><path class="cls-4" d="M1136.48,333h24v27.71q-12.2,4.79-24,10.22Z"/><path class="cls-3" d="M1120.48,264.11V309h-24V251Q1108.22,257.91,1120.48,264.11Z"/><path class="cls-4" d="M1096.48,333h24v45.65q-12.26,6.19-24,13.09Z"/><path class="cls-3" d="M1069.48,233.89V309h-24V216.18Q1057.11,225.41,1069.48,233.89Z"/><path class="cls-4" d="M1045.48,333h24v75.87q-12.36,8.47-24,17.71Z"/><path class="cls-3" d="M1003,177.52V309H979V150.09Q990.31,164.28,1003,177.52Z"/><path class="cls-4" d="M979,333h24V465.24q-12.68,13.22-24,27.43Z"/><polygon class="cls-4" points="1171 333 1195 333 1195 348.69 1179.15 354 1171 356.73 1171 333"/><polygon class="cls-3" points="1171 309 1195 309 1195 293.31 1179.15 288 1171 285.27 1171 309"/><polygon class="cls-3" points="569 309 593 309 593 293.31 577.15 288 569 285.27 569 309"/><path class="cls-3" d="M1160.48,282.05V309h-24V271.83Q1148.28,277.26,1160.48,282.05Z"/><path class="cls-4" d="M1136.48,333h24v27.71q-12.2,4.79-24,10.22Z"/><path class="cls-3" d="M1120.48,264.11V309h-24V251Q1108.22,257.91,1120.48,264.11Z"/><path class="cls-4" d="M1096.48,333h24v45.65q-12.26,6.19-24,13.09Z"/><path class="cls-3" d="M1069.48,233.89V309h-24V216.18Q1057.11,225.41,1069.48,233.89Z"/><path class="cls-4" d="M1045.48,333h24v75.87q-12.36,8.47-24,17.71Z"/><path class="cls-3" d="M1003,177.52V309H979V150.09Q990.31,164.28,1003,177.52Z"/><path class="cls-4" d="M979,333h24V465.24q-12.68,13.22-24,27.43Z"/></g></g><style>
@keyframes pulse {
  0%, 100% { transform: scaleY(1); }
  50% { transform: scaleY(1.5); }
}

.bar0 { animation: pulse 1.2s ease-in-out 0.0s infinite; transform-origin: bottom; }
.bar1 { animation: pulse 1.2s ease-in-out 0.1s infinite; transform-origin: bottom; }
.bar2 { animation: pulse 1.2s ease-in-out 0.2s infinite; transform-origin: bottom; }
.bar3 { animation: pulse 1.2s ease-in-out 0.3s infinite; transform-origin: bottom; }
.bar4 { animation: pulse 1.2s ease-in-out 0.4s infinite; transform-origin: bottom; }
.bar5 { animation: pulse 1.2s ease-in-out 0.5s infinite; transform-origin: bottom; }
.bar6 { animation: pulse 1.2s ease-in-out 0.6s infinite; transform-origin: bottom; }
.bar7 { animation: pulse 1.2s ease-in-out 0.7s infinite; transform-origin: bottom; }
.bar8 { animation: pulse 1.2s ease-in-out 0.8s infinite; transform-origin: bottom; }
.bar9 { animation: pulse 1.2s ease-in-out 0.9s infinite; transform-origin: bottom; }
.bar10 { animation: pulse 1.2s ease-in-out 1.0s infinite; transform-origin: bottom; }
.bar11 { animation: pulse 1.2s ease-in-out 1.1s infinite; transform-origin: bottom; }
.bar12 { animation: pulse 1.2s ease-in-out 1.2s infinite; transform-origin: bottom; }
.bar13 { animation: pulse 1.2s ease-in-out 1.3s infinite; transform-origin: bottom; }
.bar14 { animation: pulse 1.2s ease-in-out 1.4s infinite; transform-origin: bottom; }
.bar15 { animation: pulse 1.2s ease-in-out 1.5s infinite; transform-origin: bottom; }
.bar16 { animation: pulse 1.2s ease-in-out 1.6s infinite; transform-origin: bottom; }
.bar17 { animation: pulse 1.2s ease-in-out 1.7s infinite; transform-origin: bottom; }
.bar18 { animation: pulse 1.2s ease-in-out 1.8s infinite; transform-origin: bottom; }
.bar19 { animation: pulse 1.2s ease-in-out 1.9s infinite; transform-origin: bottom; }
.bar20 { animation: pulse 1.2s ease-in-out 2.0s infinite; transform-origin: bottom; }
.bar21 { animation: pulse 1.2s ease-in-out 2.1s infinite; transform-origin: bottom; }
.bar22 { animation: pulse 1.2s ease-in-out 2.2s infinite; transform-origin: bottom; }
.bar23 { animation: pulse 1.2s ease-in-out 2.3s infinite; transform-origin: bottom; }
.bar24 { animation: pulse 1.2s ease-in-out 2.4s infinite; transform-origin: bottom; }
.bar25 { animation: pulse 1.2s ease-in-out 2.5s infinite; transform-origin: bottom; }
.bar26 { animation: pulse 1.2s ease-in-out 2.6s infinite; transform-origin: bottom; }
.bar27 { animation: pulse 1.2s ease-in-out 2.7s infinite; transform-origin: bottom; }
.bar28 { animation: pulse 1.2s ease-in-out 2.8s infinite; transform-origin: bottom; }
.bar29 { animation: pulse 1.2s ease-in-out 2.9s infinite; transform-origin: bottom; }
.bar30 { animation: pulse 1.2s ease-in-out 3.0s infinite; transform-origin: bottom; }
.bar31 { animation: pulse 1.2s ease-in-out 3.1s infinite; transform-origin: bottom; }
.bar32 { animation: pulse 1.2s ease-in-out 3.2s infinite; transform-origin: bottom; }
.bar33 { animation: pulse 1.2s ease-in-out 3.3s infinite; transform-origin: bottom; }
.bar34 { animation: pulse 1.2s ease-in-out 3.4s infinite; transform-origin: bottom; }
.bar35 { animation: pulse 1.2s ease-in-out 3.5s infinite; transform-origin: bottom; }
.bar36 { animation: pulse 1.2s ease-in-out 3.6s infinite; transform-origin: bottom; }
.bar37 { animation: pulse 1.2s ease-in-out 3.7s infinite; transform-origin: bottom; }
.bar38 { animation: pulse 1.2s ease-in-out 3.8s infinite; transform-origin: bottom; }
.bar39 { animation: pulse 1.2s ease-in-out 3.9s infinite; transform-origin: bottom; }
.bar40 { animation: pulse 1.2s ease-in-out 4.0s infinite; transform-origin: bottom; }
.bar41 { animation: pulse 1.2s ease-in-out 4.1s infinite; transform-origin: bottom; }
.bar42 { animation: pulse 1.2s ease-in-out 4.2s infinite; transform-origin: bottom; }
.bar43 { animation: pulse 1.2s ease-in-out 4.3s infinite; transform-origin: bottom; }
.bar44 { animation: pulse 1.2s ease-in-out 4.4s infinite; transform-origin: bottom; }
.bar45 { animation: pulse 1.2s ease-in-out 4.5s infinite; transform-origin: bottom; }
.bar46 { animation: pulse 1.2s ease-in-out 4.6s infinite; transform-origin: bottom; }
.bar47 { animation: pulse 1.2s ease-in-out 4.7s infinite; transform-origin: bottom; }
.bar48 { animation: pulse 1.2s ease-in-out 4.8s infinite; transform-origin: bottom; }
.bar49 { animation: pulse 1.2s ease-in-out 4.9s infinite; transform-origin: bottom; }
.bar50 { animation: pulse 1.2s ease-in-out 5.0s infinite; transform-origin: bottom; }
.bar51 { animation: pulse 1.2s ease-in-out 5.1s infinite; transform-origin: bottom; }
.bar52 { animation: pulse 1.2s ease-in-out 5.2s infinite; transform-origin: bottom; }
.bar53 { animation: pulse 1.2s ease-in-out 5.3s infinite; transform-origin: bottom; }
.bar54 { animation: pulse 1.2s ease-in-out 5.4s infinite; transform-origin: bottom; }
.bar55 { animation: pulse 1.2s ease-in-out 5.5s infinite; transform-origin: bottom; }
.bar56 { animation: pulse 1.2s ease-in-out 5.6s infinite; transform-origin: bottom; }
.bar57 { animation: pulse 1.2s ease-in-out 5.7s infinite; transform-origin: bottom; }
.bar58 { animation: pulse 1.2s ease-in-out 5.8s infinite; transform-origin: bottom; }
.bar59 { animation: pulse 1.2s ease-in-out 5.9s infinite; transform-origin: bottom; }
.bar60 { animation: pulse 1.2s ease-in-out 6.0s infinite; transform-origin: bottom; }
.bar61 { animation: pulse 1.2s ease-in-out 6.1s infinite; transform-origin: bottom; }
.bar62 { animation: pulse 1.2s ease-in-out 6.2s infinite; transform-origin: bottom; }
.bar63 { animation: pulse 1.2s ease-in-out 6.3s infinite; transform-origin: bottom; }
.bar64 { animation: pulse 1.2s ease-in-out 6.4s infinite; transform-origin: bottom; }
.bar65 { animation: pulse 1.2s ease-in-out 6.5s infinite; transform-origin: bottom; }
.bar66 { animation: pulse 1.2s ease-in-out 6.6s infinite; transform-origin: bottom; }
.bar67 { animation: pulse 1.2s ease-in-out 6.7s infinite; transform-origin: bottom; }
</style>
</svg>