<svg xmlns="http://www.w3.org/2000/svg" viewBox="0 0 1195 635.11">
<rect class="cls-1" x="285" width="24" height="309"/>
<rect class="cls-2" x="285" y="333" width="24" height="302.11"/>
<path class="cls-3" d="M58.52,271.83V309h-24V282.05Q46.72,277.27,58.52,271.83Z"/>
<path class="cls-4" d="M34.52,333h24v37.93q-11.81-5.43-24-10.22Z"/>
<path class="cls-3" d="M98.52,251v58h-24V264.11Q86.78,257.92,98.52,251Z"/>
<path class="cls-4" d="M74.52,333h24v58.74q-11.74-6.89-24-13.09Z"/>
<path class="cls-3" d="M149.52,216.18V309h-24V233.89Q137.88,225.42,149.52,216.18Z"/>
<path class="cls-4" d="M125.52,333h24v93.58q-11.62-9.22-24-17.71Z"/>
<path class="cls-3" d="M216,150.09V309H192V177.52Q204.68,164.31,216,150.09Z"/>
<path class="cls-4" d="M192,333h24V492.67q-11.31-14.19-24-27.43Z"/>
<polygon class="cls-3" points="24 286.03 24 309 0 309 0 294.07 15.85 288.76 24 286.03"/>
<polygon class="cls-4" points="0 333 24 333 24 354 15.85 354 0 348.69 0 333"/>
<polygon class="cls-4" points="24 354 24 356.73 15.85 354 24 354"/>
<path class="cls-3" d="M58.52,271.83V309h-24V282.05Q46.72,277.27,58.52,271.83Z"/>
<path class="cls-4" d="M34.52,333h24v37.93q-11.81-5.43-24-10.22Z"/>
<path class="cls-3" d="M98.52,251v58h-24V264.11Q86.78,257.92,98.52,251Z"/>
<path class="cls-4" d="M74.52,333h24v58.74q-11.74-6.89-24-13.09Z"/>
<path class="cls-3" d="M149.52,216.18V309h-24V233.89Q137.88,225.42,149.52,216.18Z"/>
<path class="cls-4" d="M125.52,333h24v93.58q-11.62-9.22-24-17.71Z"/>
<path class="cls-3" d="M216,150.09V309H192V177.52Q204.68,164.31,216,150.09Z"/>
<path class="cls-4" d="M192,333h24V492.67q-11.31-14.19-24-27.43Z"/>
<path class="cls-3" d="M558.48,282.05V309h-24V271.83Q546.29,277.26,558.48,282.05Z"/>
<path class="cls-4" d="M534.48,333h24v27.71q-12.19,4.79-24,10.22Z"/>
<path class="cls-3" d="M518.48,264.11V309h-24V251Q506.23,257.91,518.48,264.11Z"/>
<path class="cls-4" d="M494.48,333h24v45.65q-12.25,6.19-24,13.09Z"/>
<path class="cls-3" d="M467.48,233.89V309h-24V216.18Q455.11,225.41,467.48,233.89Z"/>
<path class="cls-4" d="M443.48,333h24v75.87q-12.36,8.47-24,17.71Z"/>
<path class="cls-3" d="M401,177.52V309H377V150.09Q388.31,164.28,401,177.52Z"/>
<path class="cls-4" d="M377,333h24V465.24q-12.67,13.22-24,27.43Z"/>
<polygon class="cls-4" points="569 333 593 333 593 348.69 577.15 354 569 356.73 569 333"/>
<polygon class="cls-4" points="626 333 602 333 602 348.69 617.85 354 626 356.73 626 333"/>
<path class="cls-3" d="M558.48,282.05V309h-24V271.83Q546.29,277.26,558.48,282.05Z"/>
<path class="cls-4" d="M534.48,333h24v27.71q-12.19,4.79-24,10.22Z"/>
<path class="cls-3" d="M518.48,264.11V309h-24V251Q506.23,257.91,518.48,264.11Z"/>
<path class="cls-4" d="M494.48,333h24v45.65q-12.25,6.19-24,13.09Z"/>
<path class="cls-3" d="M467.48,233.89V309h-24V216.18Q455.11,225.41,467.48,233.89Z"/>
<path class="cls-4" d="M443.48,333h24v75.87q-12.36,8.47-24,17.71Z"/>
<path class="cls-3" d="M401,177.52V309H377V150.09Q388.31,164.28,401,177.52Z"/>
<path class="cls-4" d="M377,333h24V465.24q-12.67,13.22-24,27.43Z"/>
<rect class="cls-1" x="887" width="24" height="309"/>
<rect class="cls-2" x="887" y="333" width="24" height="302.11"/>
<path class="cls-3" d="M660.52,271.83V309h-24V282.05Q648.71,277.27,660.52,271.83Z"/>
<path class="cls-4" d="M636.52,333h24v37.93q-11.81-5.43-24-10.22Z"/>
<path class="cls-3" d="M700.52,251v58h-24V264.11Q688.78,257.92,700.52,251Z"/>
<path class="cls-4" d="M676.52,333h24v58.74q-11.74-6.89-24-13.09Z"/>
<path class="cls-3" d="M751.52,216.18V309h-24V233.89Q739.88,225.42,751.52,216.18Z"/>
<path class="cls-4" d="M727.52,333h24v93.58q-11.62-9.22-24-17.71Z"/>
<path class="cls-3" d="M818,150.09V309H794V177.52Q806.68,164.31,818,150.09Z"/>
<path class="cls-4" d="M794,333h24V492.67q-11.31-14.19-24-27.43Z"/>
<polygon class="cls-3" points="626 286.03 626 309 602 309 602 294.07 617.85 288.76 626 286.03"/>
<path class="cls-3" d="M660.52,271.83V309h-24V282.05Q648.71,277.27,660.52,271.83Z"/>
<path class="cls-4" d="M636.52,333h24v37.93q-11.81-5.43-24-10.22Z"/>
<path class="cls-3" d="M700.52,251v58h-24V264.11Q688.78,257.92,700.52,251Z"/>
<path class="cls-4" d="M676.52,333h24v58.74q-11.74-6.89-24-13.09Z"/>
<path class="cls-3" d="M751.52,216.18V309h-24V233.89Q739.88,225.42,751.52,216.18Z"/>
<path class="cls-4" d="M727.52,333h24v93.58q-11.62-9.22-24-17.71Z"/>
<path class="cls-3" d="M818,150.09V309H794V177.52Q806.68,164.31,818,150.09Z"/>
<path class="cls-4" d="M794,333h24V492.67q-11.31-14.19-24-27.43Z"/>
<path class="cls-3" d="M1160.48,282.05V309h-24V271.83Q1148.28,277.26,1160.48,282.05Z"/>
<path class="cls-4" d="M1136.48,333h24v27.71q-12.2,4.79-24,10.22Z"/>
<path class="cls-3" d="M1120.48,264.11V309h-24V251Q1108.22,257.91,1120.48,264.11Z"/>
<path class="cls-4" d="M1096.48,333h24v45.65q-12.26,6.19-24,13.09Z"/>
<path class="cls-3" d="M1069.48,233.89V309h-24V216.18Q1057.11,225.41,1069.48,233.89Z"/>
<path class="cls-4" d="M1045.48,333h24v75.87q-12.36,8.47-24,17.71Z"/>
<path class="cls-3" d="M1003,177.52V309H979V150.09Q990.31,164.28,1003,177.52Z"/>
<path class="cls-4" d="M979,333h24V465.24q-12.68,13.22-24,27.43Z"/>
<polygon class="cls-4" points="1171 333 1195 333 1195 348.69 1179.15 354 1171 356.73 1171 333"/>
<polygon class="cls-3" points="1171 309 1195 309 1195 293.31 1179.15 288 1171 285.27 1171 309"/>
<polygon class="cls-3" points="569 309 593 309 593 293.31 577.15 288 569 285.27 569 309"/>
<path class="cls-3" d="M1160.48,282.05V309h-24V271.83Q1148.28,277.26,1160.48,282.05Z"/>
<path class="cls-4" d="M1136.48,333h24v27.71q-12.2,4.79-24,10.22Z"/>
<path class="cls-3" d="M1120.48,264.11V309h-24V251Q1108.22,257.91,1120.48,264.11Z"/>
<path class="cls-4" d="M1096.48,333h24v45.65q-12.26,6.19-24,13.09Z"/>
<path class="cls-3" d="M1069.48,233.89V309h-24V216.18Q1057.11,225.41,1069.48,233.89Z"/>
<path class="cls-4" d="M1045.48,333h24v75.87q-12.36,8.47-24,17.71Z"/>
<path class="cls-3" d="M1003,177.52V309H979V150.09Q990.31,164.28,1003,177.52Z"/>
<path class="cls-4" d="M979,333h24V465.24q-12.68,13.22-24,27.43Z"/></svg>